<svg class="animated" id="freepik_stories-insurance" xmlns="http://www.w3.org/2000/svg" viewBox="0 0 500 500" version="1.1" xmlns:xlink="http://www.w3.org/1999/xlink" xmlns:svgjs="http://svgjs.com/svgjs"><style>svg#freepik_stories-insurance:not(.animated) .animable {opacity: 0;}svg#freepik_stories-insurance.animated #freepik--Money--inject-7 {animation: 1.5s Infinite  linear wind;animation-delay: 0s;}svg#freepik_stories-insurance.animated #freepik--Car--inject-7 {animation: 1.0s 1 forwards cubic-bezier(.36,-0.01,.5,1.38) lightSpeedRight;animation-delay: 0s;}            @keyframes wind {                0% {                    transform: rotate( 0deg );                }                25% {                    transform: rotate( 1deg );                }                75% {                    transform: rotate( -1deg );                }            }                    @keyframes lightSpeedRight {              from {                transform: translate3d(50%, 0, 0) skewX(-20deg);                opacity: 0;              }              60% {                transform: skewX(10deg);                opacity: 1;              }              80% {                transform: skewX(-2deg);              }              to {                opacity: 1;                transform: translate3d(0, 0, 0);              }            }        </style><g id="freepik--background-simple--inject-7" class="animable" style="transform-origin: 249.703px 230.021px;"><path d="M329.22,43.77s-73.45-21.63-146,22.12S73.73,191.21,42,256.67,27.85,386.24,82.82,413.17s92.77-18.6,170.17-24.54,98.14,3.72,162.63-41.6,76.76-145.46,26.59-216.64S329.22,43.77,329.22,43.77Z" style="fill: rgb(146, 227, 169); transform-origin: 249.703px 230.021px;" id="elpe9i2dtfehr" class="animable"></path><g id="elo01b5cy3re"><path d="M329.22,43.77s-73.45-21.63-146,22.12S73.73,191.21,42,256.67,27.85,386.24,82.82,413.17s92.77-18.6,170.17-24.54,98.14,3.72,162.63-41.6,76.76-145.46,26.59-216.64S329.22,43.77,329.22,43.77Z" style="fill: rgb(255, 255, 255); opacity: 0.7; transform-origin: 249.703px 230.021px;" class="animable"></path></g></g><g id="freepik--Clouds--inject-7" class="animable" style="transform-origin: 262.415px 168.009px;"><path d="M133.38,79.61a17.5,17.5,0,0,0-4.14,7.8,10.3,10.3,0,0,0-13.36-2.83A20.19,20.19,0,0,0,76,82.15a13.13,13.13,0,0,0-17.91-.49" style="fill: none; stroke: rgb(38, 50, 56); stroke-miterlimit: 10; transform-origin: 95.735px 76.7524px;" id="ellolqqfez7hc" class="animable"></path><path d="M188.4,58.32A26.64,26.64,0,0,0,158.24,79a17.31,17.31,0,0,0-21.06-2.51" style="fill: none; stroke: rgb(38, 50, 56); stroke-miterlimit: 10; transform-origin: 162.79px 68.4995px;" id="elc1zpuvlar67" class="animable"></path><path d="M203.37,66.09A26.65,26.65,0,0,0,197,61.21" style="fill: none; stroke: rgb(38, 50, 56); stroke-miterlimit: 10; transform-origin: 200.185px 63.65px;" id="el7eiqdk2sgpt" class="animable"></path><path d="M193.78,92H243a8.63,8.63,0,0,0-12.65-2.38,13.61,13.61,0,0,0-19.56-7.41,26.43,26.43,0,0,0-5.05-13.35" style="fill: none; stroke: rgb(38, 50, 56); stroke-miterlimit: 10; transform-origin: 218.39px 80.43px;" id="elh0wyc1nnd4" class="animable"></path><path d="M56.06,84a13.14,13.14,0,0,0-2.39,7.56c0,.17,0,.33,0,.49H184.09" style="fill: none; stroke: rgb(38, 50, 56); stroke-miterlimit: 10; transform-origin: 118.88px 88.025px;" id="el6r5r4qvno3t" class="animable"></path><path d="M230.66,100.76a11.83,11.83,0,0,0-19.25,6.52,7.7,7.7,0,0,0-12.9,3.73,4.57,4.57,0,0,0-3.68-1.85,4.67,4.67,0,0,0-2.26.59,9,9,0,0,0-17.72-1.08,5.85,5.85,0,0,0-9.95,4.17,1.49,1.49,0,0,0,0,.21H249.1a3.84,3.84,0,0,0-5.63-1,6,6,0,0,0-5.72-4.08,6.13,6.13,0,0,0-3,.78,11.76,11.76,0,0,0-.53-2.6" style="fill: none; stroke: rgb(38, 50, 56); stroke-miterlimit: 10; transform-origin: 206.998px 105.488px;" id="elf1mwjwtatup" class="animable"></path><path d="M384.69,253a12.83,12.83,0,0,0-3.09,5.82,7.71,7.71,0,0,0-6.2-3.11,7.6,7.6,0,0,0-3.79,1,15.1,15.1,0,0,0-29.79-1.82,9.82,9.82,0,0,0-13.38-.37" style="fill: none; stroke: rgb(38, 50, 56); stroke-miterlimit: 10; transform-origin: 356.565px 250.911px;" id="eldaxnvjxddp" class="animable"></path><path d="M425.81,237.09a21,21,0,0,0-3.09-.24,19.9,19.9,0,0,0-19.45,15.71,12.94,12.94,0,0,0-15.75-1.87" style="fill: none; stroke: rgb(38, 50, 56); stroke-miterlimit: 10; transform-origin: 406.665px 244.705px;" id="elekg39iz6crq" class="animable"></path><path d="M437,242.9a19.92,19.92,0,0,0-4.8-3.65" style="fill: none; stroke: rgb(38, 50, 56); stroke-miterlimit: 10; transform-origin: 434.6px 241.075px;" id="elpfghgmafft" class="animable"></path><path d="M429.83,262.26H466.6a6.46,6.46,0,0,0-9.45-1.78A10.17,10.17,0,0,0,442.53,255a19.79,19.79,0,0,0-3.78-10" style="fill: none; stroke: rgb(38, 50, 56); stroke-miterlimit: 10; transform-origin: 448.215px 253.63px;" id="elatzgz58jeoq" class="animable"></path><path d="M326.9,256.25a9.83,9.83,0,0,0-1.78,5.65c0,.12,0,.24,0,.36h97.45" style="fill: none; stroke: rgb(38, 50, 56); stroke-miterlimit: 10; transform-origin: 373.845px 259.255px;" id="el3h1cchbjizi" class="animable"></path><path d="M457.39,268.81a8.76,8.76,0,0,0-5.73-2.11,8.86,8.86,0,0,0-8.66,7,5.75,5.75,0,0,0-9.63,2.79,3.44,3.44,0,0,0-2.76-1.38,3.39,3.39,0,0,0-1.68.44,6.71,6.71,0,0,0-13.25-.8,4.36,4.36,0,0,0-7.43,3.11.86.86,0,0,0,0,.16h62.91a2.85,2.85,0,0,0-4.2-.79,4.55,4.55,0,0,0-4.28-3,4.48,4.48,0,0,0-2.22.59,8.88,8.88,0,0,0-.4-1.95" style="fill: none; stroke: rgb(38, 50, 56); stroke-miterlimit: 10; transform-origin: 439.703px 272.36px;" id="el3j6uksfopca" class="animable"></path></g><g id="freepik--Binder--inject-7" class="animable" style="transform-origin: 166.05px 249.955px;"><rect x="97.81" y="156.55" width="136.48" height="201.52" style="fill: rgb(38, 50, 56); stroke: rgb(38, 50, 56); stroke-linecap: round; stroke-linejoin: round; transform-origin: 166.05px 257.31px;" id="elksy0v9tl8q" class="animable"></rect><rect x="106.59" y="166.32" width="118.92" height="182.2" style="fill: rgb(255, 255, 255); stroke: rgb(38, 50, 56); stroke-linecap: round; stroke-linejoin: round; transform-origin: 166.05px 257.42px;" id="elfydwzrv7l7p" class="animable"></rect><path d="M142.63,150.32h46.84a6.63,6.63,0,0,1,6.63,6.63v14.11a0,0,0,0,1,0,0H136a0,0,0,0,1,0,0V157A6.63,6.63,0,0,1,142.63,150.32Z" style="fill: rgb(125, 125, 125); stroke: rgb(38, 50, 56); stroke-linecap: round; stroke-linejoin: round; transform-origin: 166.05px 160.69px;" id="el1pd0ohvgd5k" class="animable"></path><path d="M162,141.84h8A7.12,7.12,0,0,1,177.2,149v1.3a0,0,0,0,1,0,0H154.91a0,0,0,0,1,0,0V149A7.12,7.12,0,0,1,162,141.84Z" style="fill: rgb(125, 125, 125); stroke: rgb(38, 50, 56); stroke-linecap: round; stroke-linejoin: round; transform-origin: 166.055px 146.07px;" id="elvgu7fhfvpll" class="animable"></path><circle cx="196.09" cy="195.17" r="19.24" style="fill: rgb(38, 50, 56); stroke: rgb(38, 50, 56); stroke-linecap: round; stroke-linejoin: round; transform-origin: 196.09px 195.17px;" id="elay477qmb7k9" class="animable"></circle><polygon points="209.39 190.36 201.18 190.36 201.18 182.16 191.56 182.16 191.56 190.36 183.36 190.36 183.36 199.98 191.56 199.98 191.56 208.19 201.18 208.19 201.18 199.98 209.39 199.98 209.39 190.36" style="fill: rgb(146, 227, 169); stroke: rgb(38, 50, 56); stroke-linecap: round; stroke-linejoin: round; transform-origin: 196.375px 195.175px;" id="el274pshi2pki" class="animable"></polygon><line x1="116.87" y1="194.61" x2="163.27" y2="194.61" style="fill: none; stroke: rgb(38, 50, 56); stroke-linecap: round; stroke-linejoin: round; transform-origin: 140.07px 194.61px;" id="el01ls74h393p5" class="animable"></line><line x1="116.87" y1="204.23" x2="163.27" y2="204.23" style="fill: none; stroke: rgb(38, 50, 56); stroke-linecap: round; stroke-linejoin: round; transform-origin: 140.07px 204.23px;" id="ellan2qn8v6qr" class="animable"></line><line x1="116.87" y1="235.92" x2="214.76" y2="235.92" style="fill: none; stroke: rgb(38, 50, 56); stroke-linecap: round; stroke-linejoin: round; transform-origin: 165.815px 235.92px;" id="eltcqewvzcpf" class="animable"></line><rect x="117.44" y="244.97" width="11.32" height="11.88" style="fill: none; stroke: rgb(38, 50, 56); stroke-linecap: round; stroke-linejoin: round; transform-origin: 123.1px 250.91px;" id="el4dg97y4ulj8" class="animable"></rect><rect x="170.06" y="244.97" width="11.32" height="11.88" style="fill: none; stroke: rgb(38, 50, 56); stroke-linecap: round; stroke-linejoin: round; transform-origin: 175.72px 250.91px;" id="elj2qla500mf" class="animable"></rect><line x1="133.28" y1="256.85" x2="161.01" y2="256.85" style="fill: none; stroke: rgb(38, 50, 56); stroke-linecap: round; stroke-linejoin: round; transform-origin: 147.145px 256.85px;" id="elfr88il1higp" class="animable"></line><line x1="185.9" y1="256.85" x2="213.63" y2="256.85" style="fill: none; stroke: rgb(38, 50, 56); stroke-linecap: round; stroke-linejoin: round; transform-origin: 199.765px 256.85px;" id="elnn9hzomyyom" class="animable"></line><rect x="117.44" y="268.17" width="11.32" height="11.88" style="fill: none; stroke: rgb(38, 50, 56); stroke-linecap: round; stroke-linejoin: round; transform-origin: 123.1px 274.11px;" id="elzj3a41mkdq" class="animable"></rect><rect x="170.06" y="268.17" width="11.32" height="11.88" style="fill: none; stroke: rgb(38, 50, 56); stroke-linecap: round; stroke-linejoin: round; transform-origin: 175.72px 274.11px;" id="el08aoslibqbdt" class="animable"></rect><line x1="133.28" y1="280.05" x2="161.01" y2="280.05" style="fill: none; stroke: rgb(38, 50, 56); stroke-linecap: round; stroke-linejoin: round; transform-origin: 147.145px 280.05px;" id="elf9a3euhgw65" class="animable"></line><line x1="185.9" y1="280.05" x2="213.63" y2="280.05" style="fill: none; stroke: rgb(38, 50, 56); stroke-linecap: round; stroke-linejoin: round; transform-origin: 199.765px 280.05px;" id="eli1wak3tsxm" class="animable"></line><rect x="117.44" y="291.37" width="11.32" height="11.88" style="fill: none; stroke: rgb(38, 50, 56); stroke-linecap: round; stroke-linejoin: round; transform-origin: 123.1px 297.31px;" id="elm78bjq2umcn" class="animable"></rect><rect x="170.06" y="291.37" width="11.32" height="11.88" style="fill: none; stroke: rgb(38, 50, 56); stroke-linecap: round; stroke-linejoin: round; transform-origin: 175.72px 297.31px;" id="el9ery2n7we7p" class="animable"></rect><line x1="133.28" y1="303.25" x2="161.01" y2="303.25" style="fill: none; stroke: rgb(38, 50, 56); stroke-linecap: round; stroke-linejoin: round; transform-origin: 147.145px 303.25px;" id="el5xwlnw3opsw" class="animable"></line><line x1="185.9" y1="303.25" x2="213.63" y2="303.25" style="fill: none; stroke: rgb(38, 50, 56); stroke-linecap: round; stroke-linejoin: round; transform-origin: 199.765px 303.25px;" id="el7czw0xwkk7s" class="animable"></line><rect x="117.44" y="314.57" width="11.32" height="11.88" style="fill: none; stroke: rgb(38, 50, 56); stroke-linecap: round; stroke-linejoin: round; transform-origin: 123.1px 320.51px;" id="eltibh6mddcma" class="animable"></rect><rect x="170.06" y="314.57" width="11.32" height="11.88" style="fill: none; stroke: rgb(38, 50, 56); stroke-linecap: round; stroke-linejoin: round; transform-origin: 175.72px 320.51px;" id="el824ngnht7ud" class="animable"></rect><line x1="133.28" y1="326.45" x2="161.01" y2="326.45" style="fill: none; stroke: rgb(38, 50, 56); stroke-linecap: round; stroke-linejoin: round; transform-origin: 147.145px 326.45px;" id="el4dlmyonmava" class="animable"></line><line x1="185.9" y1="326.45" x2="213.63" y2="326.45" style="fill: none; stroke: rgb(38, 50, 56); stroke-linecap: round; stroke-linejoin: round; transform-origin: 199.765px 326.45px;" id="elgh0r3mcve1n" class="animable"></line></g><g id="freepik--Money--inject-7" class="animable animator-active" style="transform-origin: 331.047px 228.66px;"><rect x="252.35" y="100.73" width="104.49" height="196.26" style="fill: rgb(146, 227, 169); stroke: rgb(38, 50, 56); stroke-linecap: round; stroke-linejoin: round; transform-origin: 304.595px 198.86px;" id="elzonqxwxyr3" class="animable"></rect><path d="M346.13,124.18a10.05,10.05,0,0,1-10.05-10.05H272.45a10.05,10.05,0,0,1-10.05,10.05v148.7a10.05,10.05,0,0,1,10.05,10.05c0,.23,0,.45,0,.67h63.71c0-.22,0-.44,0-.67a10.05,10.05,0,0,1,10.05-10.05c.23,0,.45,0,.67,0V124.14C346.58,124.16,346.36,124.18,346.13,124.18ZM304.6,229.34a30.48,30.48,0,1,1,30.48-30.48A30.48,30.48,0,0,1,304.6,229.34Z" style="fill: rgb(255, 255, 255); stroke: rgb(38, 50, 56); stroke-linecap: round; stroke-linejoin: round; transform-origin: 304.64px 198.865px;" id="elch35en3qku" class="animable"></path><g id="elze8d200jxra"><rect x="266.57" y="109.79" width="104.49" height="196.26" style="fill: rgb(146, 227, 169); stroke: rgb(38, 50, 56); stroke-linecap: round; stroke-linejoin: round; transform-origin: 318.815px 207.92px; transform: rotate(8.87deg);" class="animable"></rect></g><path d="M371.37,140.53A10,10,0,0,1,363,129.06l-62.87-9.82a10.06,10.06,0,0,1-11.48,8.38L265.7,274.54A10.05,10.05,0,0,1,274.08,286c0,.22-.09.44-.14.65l62.94,9.83c0-.22,0-.44.07-.66a10,10,0,0,1,11.48-8.38c.22,0,.44.09.66.13l23-147C371.82,140.58,371.59,140.57,371.37,140.53ZM314.11,238a30.48,30.48,0,1,1,34.82-25.41A30.47,30.47,0,0,1,314.11,238Z" style="fill: rgb(255, 255, 255); stroke: rgb(38, 50, 56); stroke-linecap: round; stroke-linejoin: round; transform-origin: 318.895px 207.86px;" id="ello5w15d0a8j" class="animable"></path><g id="el8jfn23o7nbg"><rect x="284.17" y="126.38" width="104.49" height="196.26" style="fill: rgb(146, 227, 169); stroke: rgb(38, 50, 56); stroke-linecap: round; stroke-linejoin: round; transform-origin: 336.415px 224.51px; transform: rotate(21.62deg);" class="animable"></rect></g><path d="M402.55,170.39a10.05,10.05,0,0,1-5.64-13l-59.16-23.46a10,10,0,0,1-13,5.64l-54.8,138.24a10,10,0,0,1,5.64,13c-.09.21-.18.41-.28.61l59.22,23.48c.07-.21.13-.43.21-.64a10.06,10.06,0,0,1,13.05-5.63c.21.08.41.18.61.27l54.82-138.3Q402.87,170.51,402.55,170.39Zm-77.36,82.46a30.48,30.48,0,1,1,39.56-17.1A30.49,30.49,0,0,1,325.19,252.85Z" style="fill: rgb(255, 255, 255); stroke: rgb(38, 50, 56); stroke-linecap: round; stroke-linejoin: round; transform-origin: 336.585px 224.415px;" id="elq4tc1garsxp" class="animable"></path><g id="el3m3khput4mo"><rect x="298.57" y="148.21" width="104.49" height="196.26" style="fill: rgb(146, 227, 169); stroke: rgb(38, 50, 56); stroke-linecap: round; stroke-linejoin: round; transform-origin: 350.815px 246.34px; transform: rotate(35.41deg);" class="animable"></rect></g><path d="M427.94,209.53a10,10,0,0,1-2.36-14l-51.87-36.87a10.05,10.05,0,0,1-14,2.37L273.54,282.21a10,10,0,0,1,2.36,14c-.13.19-.27.35-.41.53l51.91,36.91c.12-.19.23-.38.37-.57a10,10,0,0,1,14-2.36c.18.13.35.27.52.41l86.21-121.25Q428.23,209.73,427.94,209.53Zm-94.78,61.65a30.48,30.48,0,1,1,42.5-7.18A30.48,30.48,0,0,1,333.16,271.18Z" style="fill: rgb(255, 255, 255); stroke: rgb(38, 50, 56); stroke-linecap: round; stroke-linejoin: round; transform-origin: 351.02px 246.155px;" id="elg8pfui2avmn" class="animable"></path><circle cx="276.82" cy="243.37" r="64.98" style="fill: rgb(255, 255, 255); stroke: rgb(38, 50, 56); stroke-linecap: round; stroke-linejoin: round; transform-origin: 276.82px 243.37px;" id="els93hn9fonlh" class="animable"></circle><line x1="224.97" y1="204.84" x2="231.96" y2="204.84" style="fill: none; stroke: rgb(38, 50, 56); stroke-linecap: round; stroke-linejoin: round; transform-origin: 228.465px 204.84px;" id="elbtb6xr6mb4r" class="animable"></line><line x1="228.25" y1="200.59" x2="234.79" y2="200.59" style="fill: none; stroke: rgb(38, 50, 56); stroke-linecap: round; stroke-linejoin: round; transform-origin: 231.52px 200.59px;" id="elgkhykk03ri" class="animable"></line><line x1="231.37" y1="197.29" x2="237.86" y2="197.29" style="fill: none; stroke: rgb(38, 50, 56); stroke-linecap: round; stroke-linejoin: round; transform-origin: 234.615px 197.29px;" id="elxdztjt2s52d" class="animable"></line><line x1="235.39" y1="193.79" x2="241.11" y2="193.79" style="fill: none; stroke: rgb(38, 50, 56); stroke-linecap: round; stroke-linejoin: round; transform-origin: 238.25px 193.79px;" id="elpz1m7fxvxej" class="animable"></line><line x1="220.71" y1="211.21" x2="227.24" y2="211.21" style="fill: none; stroke: rgb(38, 50, 56); stroke-linecap: round; stroke-linejoin: round; transform-origin: 223.975px 211.21px;" id="elkh440iae9z" class="animable"></line><line x1="215.96" y1="221.35" x2="222.52" y2="221.35" style="fill: none; stroke: rgb(38, 50, 56); stroke-linecap: round; stroke-linejoin: round; transform-origin: 219.24px 221.35px;" id="elcbfb9lbttq" class="animable"></line><line x1="212.7" y1="233.62" x2="219.69" y2="233.62" style="fill: none; stroke: rgb(38, 50, 56); stroke-linecap: round; stroke-linejoin: round; transform-origin: 216.195px 233.62px;" id="elr0dace7j6qn" class="animable"></line><line x1="212.23" y1="247.31" x2="219.22" y2="247.31" style="fill: none; stroke: rgb(38, 50, 56); stroke-linecap: round; stroke-linejoin: round; transform-origin: 215.725px 247.31px;" id="el7p84ydwyb9w" class="animable"></line><circle cx="282.96" cy="243.37" r="64.98" style="fill: rgb(255, 255, 255); stroke: rgb(38, 50, 56); stroke-linecap: round; stroke-linejoin: round; transform-origin: 282.96px 243.37px;" id="el9ljf82vjep" class="animable"></circle><g id="elydcpkv2204"><circle cx="282.96" cy="243.37" r="51.75" style="fill: rgb(255, 255, 255); stroke: rgb(38, 50, 56); stroke-linecap: round; stroke-linejoin: round; transform-origin: 282.96px 243.37px; transform: rotate(-77.01deg);" class="animable"></circle></g><path d="M283,191.62l-1,0a51.73,51.73,0,0,1,0,103.45l1,0a51.75,51.75,0,1,0,0-103.49Z" style="fill: rgb(255, 255, 255); stroke: rgb(38, 50, 56); stroke-linecap: round; stroke-linejoin: round; transform-origin: 308.735px 243.325px;" id="elkwijsur8oko" class="animable"></path><path d="M285.38,275.64a.69.69,0,0,0-.55.65l.09,4.19a1.38,1.38,0,0,1-1.58,1.58h-5.49a1.38,1.38,0,0,1-1.58-1.58l.18-4.28a.67.67,0,0,0-.56-.65c-10.6-1.3-16.75-7.72-16.75-16.65v-4a1.43,1.43,0,0,1,1.59-1.58h9.67c1,0,1.59.47,1.59,1.21v1.3c0,4.75,3.07,8.84,9.39,8.84,6,0,8.47-3.63,8.47-7.35,0-6.6-12.1-7.63-21-13.4-5.77-3.53-9.77-8.09-9.77-16,0-9.77,6.05-16.66,16.75-18.24a.68.68,0,0,0,.56-.65l-.19-5a1.39,1.39,0,0,1,1.58-1.59h5.31a1.43,1.43,0,0,1,1.58,1.59l-.09,4.93a.67.67,0,0,0,.56.65c11.16,1.21,17.49,8,17.49,17.59v3.07a1.42,1.42,0,0,1-1.58,1.58h-9.77c-1,0-1.59-.37-1.59-.93V230c0-4.93-2.79-9.4-9.3-9.4-5.21,0-8.37,2.7-8.37,6.88,0,6.05,8.46,7,17.21,10.8,9.58,4.28,13.77,10.23,13.77,18.42C303,266.9,296.74,274.15,285.38,275.64Z" style="fill: rgb(255, 255, 255); stroke: rgb(38, 50, 56); stroke-linecap: round; stroke-linejoin: round; transform-origin: 281.04px 242.251px;" id="elyhd824iqxx" class="animable"></path><path d="M287.37,275.64a.7.7,0,0,0-.56.65l.09,4.19a1.38,1.38,0,0,1-1.58,1.58h-5.49a1.38,1.38,0,0,1-1.58-1.58l.19-4.28a.68.68,0,0,0-.56-.65c-10.61-1.3-16.75-7.72-16.75-16.65v-4a1.42,1.42,0,0,1,1.58-1.58h9.68c1,0,1.58.47,1.58,1.21v1.3c0,4.75,3.07,8.84,9.4,8.84,5.95,0,8.47-3.63,8.47-7.35,0-6.6-12.1-7.63-21-13.4-5.77-3.53-9.77-8.09-9.77-16,0-9.77,6-16.66,16.74-18.24a.67.67,0,0,0,.56-.65l-.18-5a1.39,1.39,0,0,1,1.58-1.59H285a1.42,1.42,0,0,1,1.58,1.59l-.09,4.93a.68.68,0,0,0,.56.65c11.16,1.21,17.49,8,17.49,17.59v3.07a1.42,1.42,0,0,1-1.58,1.58h-9.77c-1,0-1.58-.37-1.58-.93V230c0-4.93-2.79-9.4-9.31-9.4-5.21,0-8.37,2.7-8.37,6.88,0,6.05,8.47,7,17.21,10.8,9.59,4.28,13.78,10.23,13.78,18.42C305,266.9,298.72,274.15,287.37,275.64Z" style="fill: rgb(38, 50, 56); transform-origin: 282.995px 242.251px;" id="el8428zgemum6" class="animable"></path></g><g id="freepik--House--inject-7" class="animable" style="transform-origin: 228.52px 355.797px;"><polygon points="120.08 445.73 58.57 445.73 58.57 378.94 87.47 349.04 120.08 378.94 120.08 445.73" style="fill: rgb(153, 153, 153); stroke: rgb(38, 50, 56); stroke-linecap: round; stroke-linejoin: round; transform-origin: 89.325px 397.385px;" id="elk3357j0x6g" class="animable"></polygon><polygon points="321.81 445.73 174.41 445.73 174.41 302.94 259.48 267.42 321.81 302.94 321.81 445.73" style="fill: rgb(153, 153, 153); stroke: rgb(38, 50, 56); stroke-linecap: round; stroke-linejoin: round; transform-origin: 248.11px 356.575px;" id="els0do9jnfap" class="animable"></polygon><rect x="117.35" y="366.35" width="76.73" height="79.47" style="fill: rgb(255, 255, 255); stroke: rgb(38, 50, 56); stroke-linecap: round; stroke-linejoin: round; transform-origin: 155.715px 406.085px;" id="elfmv2zeyqs09" class="animable"></rect><rect x="240.5" y="378.94" width="42.15" height="66.88" style="fill: rgb(194, 194, 194); stroke: rgb(38, 50, 56); stroke-linecap: round; stroke-linejoin: round; transform-origin: 261.575px 412.38px;" id="elsjr2yzshkq" class="animable"></rect><rect x="249.94" y="388.38" width="19.34" height="57.44" style="fill: rgb(255, 255, 255); stroke: rgb(38, 50, 56); stroke-linecap: round; stroke-linejoin: round; transform-origin: 259.61px 417.1px;" id="el56b2ty9uvla" class="animable"></rect><rect x="252.99" y="388.38" width="13.24" height="57.44" style="fill: rgb(38, 50, 56); stroke: rgb(38, 50, 56); stroke-linecap: round; stroke-linejoin: round; transform-origin: 259.61px 417.1px;" id="el8advxbgrvwh" class="animable"></rect><rect x="229.99" y="439.72" width="36.24" height="3.69" style="fill: rgb(255, 255, 255); stroke: rgb(38, 50, 56); stroke-linecap: round; stroke-linejoin: round; transform-origin: 248.11px 441.565px;" id="elgu0dwlkxbgj" class="animable"></rect><rect x="249.94" y="388.38" width="19.34" height="4.72" style="fill: rgb(255, 255, 255); stroke: rgb(38, 50, 56); stroke-linecap: round; stroke-linejoin: round; transform-origin: 259.61px 390.74px;" id="el0mbeh7p2yb5p" class="animable"></rect><rect x="74.53" y="388.38" width="31.02" height="57.44" style="fill: rgb(255, 255, 255); stroke: rgb(38, 50, 56); stroke-linecap: round; stroke-linejoin: round; transform-origin: 90.04px 417.1px;" id="elcjxo1flrmz" class="animable"></rect><rect x="79.41" y="388.38" width="21.24" height="57.44" style="fill: rgb(38, 50, 56); stroke: rgb(38, 50, 56); stroke-linecap: round; stroke-linejoin: round; transform-origin: 90.03px 417.1px;" id="elgsvmsuophzl" class="animable"></rect><rect x="74.53" y="388.38" width="31.02" height="4.72" style="fill: rgb(255, 255, 255); stroke: rgb(38, 50, 56); stroke-linecap: round; stroke-linejoin: round; transform-origin: 90.04px 390.74px;" id="el33dn8ztiq45" class="animable"></rect><rect x="190.93" y="377.59" width="24.65" height="44.62" style="fill: rgb(194, 194, 194); stroke: rgb(38, 50, 56); stroke-linecap: round; stroke-linejoin: round; transform-origin: 203.255px 399.9px;" id="el9rb7y7u3sw" class="animable"></rect><polygon points="399.43 445.73 293.48 445.73 293.48 302.94 345.83 267.42 399.43 302.94 399.43 445.73" style="fill: rgb(255, 255, 255); stroke: rgb(38, 50, 56); stroke-linecap: round; stroke-linejoin: round; transform-origin: 346.455px 356.575px;" id="elq9afxub0pml" class="animable"></polygon><polygon points="400.76 303.41 345.73 267.71 293.04 303.72 293.04 307.2 346.11 271.19 400.76 306.89 400.76 303.41" style="fill: rgb(255, 255, 255); stroke: rgb(38, 50, 56); stroke-linecap: round; stroke-linejoin: round; transform-origin: 346.9px 287.455px;" id="elnjf2rk04fw" class="animable"></polygon><polygon points="332.3 276.6 287.33 348.51 293.48 349.3 340.29 272.57 399.43 359.82 402.58 359.69 343.58 268.95 332.3 276.6" style="fill: rgb(38, 50, 56); stroke: rgb(38, 50, 56); stroke-linecap: round; stroke-linejoin: round; transform-origin: 344.955px 314.385px;" id="el4qddomxb0zu" class="animable"></polygon><polygon points="293.48 302.94 168.11 302.94 217.67 267.42 345.73 268.14 293.48 302.94" style="fill: rgb(38, 50, 56); stroke: rgb(38, 50, 56); stroke-linecap: round; stroke-linejoin: round; transform-origin: 256.92px 285.18px;" id="eln7q9myjtcjs" class="animable"></polygon><rect x="312.02" y="364.55" width="59.44" height="81.18" style="fill: rgb(186, 186, 186); stroke: rgb(38, 50, 56); stroke-linecap: round; stroke-linejoin: round; transform-origin: 341.74px 405.14px;" id="elukmzphpnw4" class="animable"></rect><rect x="316.74" y="364.55" width="59.44" height="81.18" style="fill: rgb(255, 255, 255); stroke: rgb(38, 50, 56); stroke-linecap: round; stroke-linejoin: round; transform-origin: 346.46px 405.14px;" id="eltiwn0l9cv2" class="animable"></rect><rect x="325.76" y="376.87" width="41.39" height="42.76" style="fill: rgb(255, 255, 255); stroke: rgb(38, 50, 56); stroke-linecap: round; stroke-linejoin: round; stroke-width: 2px; transform-origin: 346.455px 398.25px;" id="eledpune7udg" class="animable"></rect><rect x="337.76" y="376.87" width="17.4" height="42.76" style="fill: rgb(255, 255, 255); stroke: rgb(38, 50, 56); stroke-linecap: round; stroke-linejoin: round; stroke-width: 2px; transform-origin: 346.46px 398.25px;" id="elvg7nva7xgw" class="animable"></rect><rect x="305.5" y="360.92" width="72.48" height="7.25" style="fill: rgb(186, 186, 186); stroke: rgb(38, 50, 56); stroke-linecap: round; stroke-linejoin: round; transform-origin: 341.74px 364.545px;" id="el36yrl2zuykx" class="animable"></rect><rect x="310.22" y="360.92" width="72.48" height="7.25" style="fill: rgb(255, 255, 255); stroke: rgb(38, 50, 56); stroke-linecap: round; stroke-linejoin: round; transform-origin: 346.46px 364.545px;" id="ellzajise602l" class="animable"></rect><rect x="267.51" y="377.59" width="3.68" height="39.14" style="fill: rgb(255, 255, 255); stroke: rgb(38, 50, 56); stroke-linecap: round; stroke-linejoin: round; transform-origin: 269.35px 397.16px;" id="elbufuihwh9k8" class="animable"></rect><rect x="277.76" y="377.59" width="3.68" height="39.14" style="fill: rgb(255, 255, 255); stroke: rgb(38, 50, 56); stroke-linecap: round; stroke-linejoin: round; transform-origin: 279.6px 397.16px;" id="elka1ult541" class="animable"></rect><rect x="266.23" y="416.19" width="6.09" height="4.39" style="fill: rgb(255, 255, 255); stroke: rgb(38, 50, 56); stroke-linecap: round; stroke-linejoin: round; transform-origin: 269.275px 418.385px;" id="el0bzgvgv3uvnb" class="animable"></rect><rect x="276.55" y="416.19" width="6.09" height="4.39" style="fill: rgb(255, 255, 255); stroke: rgb(38, 50, 56); stroke-linecap: round; stroke-linejoin: round; transform-origin: 279.595px 418.385px;" id="el893w0u1k4ol" class="animable"></rect><rect x="266.23" y="381.5" width="6.09" height="2.47" style="fill: rgb(255, 255, 255); stroke: rgb(38, 50, 56); stroke-linecap: round; stroke-linejoin: round; transform-origin: 269.275px 382.735px;" id="el39fzb3szwi2" class="animable"></rect><rect x="276.55" y="381.5" width="6.09" height="2.47" style="fill: rgb(255, 255, 255); stroke: rgb(38, 50, 56); stroke-linecap: round; stroke-linejoin: round; transform-origin: 279.595px 382.735px;" id="el1d26qpcil7y" class="animable"></rect><rect x="263.31" y="420.21" width="21.53" height="25.52" style="fill: rgb(255, 255, 255); stroke: rgb(38, 50, 56); stroke-linecap: round; stroke-linejoin: round; transform-origin: 274.075px 432.97px;" id="elz7db4n9pdk" class="animable"></rect><rect x="215.58" y="377.59" width="3.68" height="39.14" style="fill: rgb(255, 255, 255); stroke: rgb(38, 50, 56); stroke-linecap: round; stroke-linejoin: round; transform-origin: 217.42px 397.16px;" id="elnl4u9ppl71m" class="animable"></rect><rect x="225.83" y="377.59" width="3.68" height="39.14" style="fill: rgb(255, 255, 255); stroke: rgb(38, 50, 56); stroke-linecap: round; stroke-linejoin: round; transform-origin: 227.67px 397.16px;" id="eln9a8h5f9c7k" class="animable"></rect><rect x="214.3" y="416.19" width="6.09" height="4.39" style="fill: rgb(255, 255, 255); stroke: rgb(38, 50, 56); stroke-linecap: round; stroke-linejoin: round; transform-origin: 217.345px 418.385px;" id="eljxpn0foy7br" class="animable"></rect><rect x="224.62" y="416.19" width="6.09" height="4.39" style="fill: rgb(255, 255, 255); stroke: rgb(38, 50, 56); stroke-linecap: round; stroke-linejoin: round; transform-origin: 227.665px 418.385px;" id="el2t3t8hiejbq" class="animable"></rect><rect x="214.3" y="381.5" width="6.09" height="2.47" style="fill: rgb(255, 255, 255); stroke: rgb(38, 50, 56); stroke-linecap: round; stroke-linejoin: round; transform-origin: 217.345px 382.735px;" id="elecfbv98cqn" class="animable"></rect><rect x="224.62" y="381.5" width="6.09" height="2.47" style="fill: rgb(255, 255, 255); stroke: rgb(38, 50, 56); stroke-linecap: round; stroke-linejoin: round; transform-origin: 227.665px 382.735px;" id="el5m1x0edl5w5" class="animable"></rect><rect x="211.39" y="420.21" width="21.53" height="25.52" style="fill: rgb(255, 255, 255); stroke: rgb(38, 50, 56); stroke-linecap: round; stroke-linejoin: round; transform-origin: 222.155px 432.97px;" id="el7bl8l7h5ie" class="animable"></rect><rect x="185.67" y="420.21" width="26.25" height="25.52" style="fill: rgb(153, 153, 153); stroke: rgb(38, 50, 56); stroke-linecap: round; stroke-linejoin: round; transform-origin: 198.795px 432.97px;" id="elddo3qa7llte" class="animable"></rect><polygon points="284.85 381.22 203.67 381.22 217.44 373.97 284.85 373.97 284.85 381.22" style="fill: rgb(255, 255, 255); stroke: rgb(38, 50, 56); stroke-linecap: round; stroke-linejoin: round; transform-origin: 244.26px 377.595px;" id="el4gyd5vnlyk" class="animable"></polygon><line x1="326.16" y1="387.74" x2="366.75" y2="387.74" style="fill: none; stroke: rgb(38, 50, 56); stroke-linecap: round; stroke-linejoin: round; transform-origin: 346.455px 387.74px;" id="eldic5pwfot2k" class="animable"></line><line x1="326.16" y1="397.89" x2="366.75" y2="397.89" style="fill: none; stroke: rgb(38, 50, 56); stroke-linecap: round; stroke-linejoin: round; transform-origin: 346.455px 397.89px;" id="elmbxnpkp22oa" class="animable"></line><line x1="326.16" y1="408.04" x2="366.75" y2="408.04" style="fill: none; stroke: rgb(38, 50, 56); stroke-linecap: round; stroke-linejoin: round; transform-origin: 346.455px 408.04px;" id="elegy90auvuqa" class="animable"></line><polygon points="83.88 347.66 54.46 379.57 56.92 379.57 85.81 349.04 83.88 347.66" style="fill: rgb(38, 50, 56); stroke: rgb(38, 50, 56); stroke-linecap: round; stroke-linejoin: round; transform-origin: 70.135px 363.615px;" id="eldee2usrmrng" class="animable"></polygon><polygon points="114.99 378.15 195.65 378.15 256.08 347.66 83.88 347.66 114.99 378.15" style="fill: rgb(38, 50, 56); stroke: rgb(38, 50, 56); stroke-linecap: round; stroke-linejoin: round; transform-origin: 169.98px 362.905px;" id="elkuq1aexfol8" class="animable"></polygon><polygon points="298.07 347.66 251.36 347.66 168.11 378.15 209.81 378.15 298.07 347.66" style="fill: rgb(38, 50, 56); stroke: rgb(38, 50, 56); stroke-linecap: round; stroke-linejoin: round; transform-origin: 233.09px 362.905px;" id="elyo1dc9m18qa" class="animable"></polygon><path d="M402.58,351.05l-54.87-84.19a2.35,2.35,0,0,0-4,.06l-49.37,81.54L198.8,379.2v4.93l97.78-31.41a2.36,2.36,0,0,0,1.33-1l47.89-79.12,56.78,87.12Z" style="fill: rgb(255, 255, 255); stroke: rgb(38, 50, 56); stroke-linecap: round; stroke-linejoin: round; transform-origin: 300.69px 324.952px;" id="eljvz9r6nvi7q" class="animable"></path><rect x="262.14" y="308.25" width="16.67" height="27.54" style="fill: none; stroke: rgb(38, 50, 56); stroke-linecap: round; stroke-linejoin: round; stroke-width: 2px; transform-origin: 270.475px 322.02px;" id="elcppdgsd7nn5" class="animable"></rect><line x1="270.47" y1="308.98" x2="270.47" y2="335.07" style="fill: none; stroke: rgb(38, 50, 56); stroke-linecap: round; stroke-linejoin: round; transform-origin: 270.47px 322.025px;" id="elsk1ochg942" class="animable"></line><line x1="278.44" y1="322.02" x2="262.5" y2="322.02" style="fill: none; stroke: rgb(38, 50, 56); stroke-linecap: round; stroke-linejoin: round; transform-origin: 270.47px 322.02px;" id="elvo0ovwh2h1o" class="animable"></line><rect x="144.83" y="388.77" width="16.67" height="27.54" style="fill: none; stroke: rgb(38, 50, 56); stroke-linecap: round; stroke-linejoin: round; stroke-width: 2px; transform-origin: 153.165px 402.54px;" id="elykczw52bmd" class="animable"></rect><line x1="153.16" y1="389.49" x2="153.16" y2="415.59" style="fill: none; stroke: rgb(38, 50, 56); stroke-linecap: round; stroke-linejoin: round; transform-origin: 153.16px 402.54px;" id="elnec6t5h63on" class="animable"></line><line x1="161.14" y1="402.54" x2="145.19" y2="402.54" style="fill: none; stroke: rgb(38, 50, 56); stroke-linecap: round; stroke-linejoin: round; transform-origin: 153.165px 402.54px;" id="elzuqams1fnb" class="animable"></line><rect x="336.81" y="307.73" width="16.67" height="27.54" style="fill: none; stroke: rgb(38, 50, 56); stroke-linecap: round; stroke-linejoin: round; stroke-width: 2px; transform-origin: 345.145px 321.5px;" id="eljmxuvs2si9" class="animable"></rect><line x1="345.14" y1="308.45" x2="345.14" y2="334.55" style="fill: none; stroke: rgb(38, 50, 56); stroke-linecap: round; stroke-linejoin: round; transform-origin: 345.14px 321.5px;" id="el7g0hlgoiyzb" class="animable"></line><line x1="353.11" y1="321.5" x2="337.17" y2="321.5" style="fill: none; stroke: rgb(38, 50, 56); stroke-linecap: round; stroke-linejoin: round; transform-origin: 345.14px 321.5px;" id="elqe9atn5ovxc" class="animable"></line><rect x="226.5" y="308.25" width="16.67" height="27.54" style="fill: none; stroke: rgb(38, 50, 56); stroke-linecap: round; stroke-linejoin: round; stroke-width: 2px; transform-origin: 234.835px 322.02px;" id="el0l0u1emzt47" class="animable"></rect><line x1="234.83" y1="308.98" x2="234.83" y2="335.07" style="fill: none; stroke: rgb(38, 50, 56); stroke-linecap: round; stroke-linejoin: round; transform-origin: 234.83px 322.025px;" id="elinejgfc6nu" class="animable"></line><line x1="242.81" y1="322.02" x2="226.86" y2="322.02" style="fill: none; stroke: rgb(38, 50, 56); stroke-linecap: round; stroke-linejoin: round; transform-origin: 234.835px 322.02px;" id="el9zqgl9ua7a" class="animable"></line><rect x="190.86" y="308.25" width="16.67" height="27.54" style="fill: none; stroke: rgb(38, 50, 56); stroke-linecap: round; stroke-linejoin: round; stroke-width: 2px; transform-origin: 199.195px 322.02px;" id="ele9tn786e8ll" class="animable"></rect><line x1="199.2" y1="308.98" x2="199.2" y2="335.07" style="fill: none; stroke: rgb(38, 50, 56); stroke-linecap: round; stroke-linejoin: round; transform-origin: 199.2px 322.025px;" id="eluuqzepqzmb" class="animable"></line><line x1="207.17" y1="322.02" x2="191.22" y2="322.02" style="fill: none; stroke: rgb(38, 50, 56); stroke-linecap: round; stroke-linejoin: round; transform-origin: 199.195px 322.02px;" id="elu6elwtt3p6e" class="animable"></line><polygon points="133.49 367.14 124.05 367.14 113.04 356.12 122.48 356.12 133.49 367.14" style="fill: rgb(110, 110, 110); transform-origin: 123.265px 361.63px;" id="elpt6l5pvk2ab" class="animable"></polygon><polygon points="162.6 367.14 153.16 367.14 142.15 356.12 151.59 356.12 162.6 367.14" style="fill: rgb(110, 110, 110); transform-origin: 152.375px 361.63px;" id="eletb3k3n9e7" class="animable"></polygon><rect x="80.49" y="397.03" width="3.42" height="11.02" style="fill: rgb(181, 181, 181); stroke: rgb(38, 50, 56); stroke-linecap: round; stroke-linejoin: round; transform-origin: 82.2px 402.54px;" id="elgwxg7w4mcyf" class="animable"></rect><rect x="84.29" y="397.03" width="3.42" height="11.02" style="fill: rgb(181, 181, 181); stroke: rgb(38, 50, 56); stroke-linecap: round; stroke-linejoin: round; transform-origin: 86px 402.54px;" id="elya5rzg3lemn" class="animable"></rect><rect x="88.09" y="397.03" width="3.43" height="11.02" style="fill: rgb(181, 181, 181); stroke: rgb(38, 50, 56); stroke-linecap: round; stroke-linejoin: round; transform-origin: 89.805px 402.54px;" id="eleipt96tv10m" class="animable"></rect><rect x="91.9" y="397.03" width="3.43" height="11.02" style="fill: rgb(181, 181, 181); stroke: rgb(38, 50, 56); stroke-linecap: round; stroke-linejoin: round; transform-origin: 93.615px 402.54px;" id="elwbwjllr5bae" class="animable"></rect><rect x="95.7" y="397.03" width="3.42" height="11.02" style="fill: rgb(181, 181, 181); stroke: rgb(38, 50, 56); stroke-linecap: round; stroke-linejoin: round; transform-origin: 97.41px 402.54px;" id="eljgnekex6kr" class="animable"></rect><rect x="114.2" y="378.58" width="84.6" height="5.55" style="fill: rgb(255, 255, 255); stroke: rgb(38, 50, 56); stroke-linecap: round; stroke-linejoin: round; transform-origin: 156.5px 381.355px;" id="els5059mzgfri" class="animable"></rect><rect x="167.05" y="378.58" width="31.75" height="5.55" style="fill: rgb(186, 186, 186); stroke: rgb(38, 50, 56); stroke-linecap: round; stroke-linejoin: round; transform-origin: 182.925px 381.355px;" id="elu37f9s3s50q" class="animable"></rect><polygon points="114.2 378.58 83.88 347.66 54.46 379.57 58.57 379.57 83.99 352.47 114.2 384.13 114.2 378.58" style="fill: rgb(186, 186, 186); stroke: rgb(38, 50, 56); stroke-linecap: round; stroke-linejoin: round; transform-origin: 84.33px 365.895px;" id="elw6wc6t26ml" class="animable"></polygon><rect x="229.99" y="442.37" width="36.24" height="3.45" style="fill: rgb(255, 255, 255); stroke: rgb(38, 50, 56); stroke-linecap: round; stroke-linejoin: round; transform-origin: 248.11px 444.095px;" id="elk4m6qo5vh8s" class="animable"></rect><rect x="167.63" y="303.72" width="125.41" height="3.47" style="fill: rgb(186, 186, 186); stroke: rgb(38, 50, 56); stroke-linecap: round; stroke-linejoin: round; transform-origin: 230.335px 305.455px;" id="elzade1vo2tab" class="animable"></rect></g><g id="freepik--Car--inject-7" class="animable" style="transform-origin: 192.82px 423.972px;"><rect x="147.29" y="411.39" width="8.88" height="5.55" rx="2.36" style="fill: rgb(38, 50, 56); stroke: rgb(38, 50, 56); stroke-linecap: round; stroke-linejoin: round; transform-origin: 151.73px 414.165px;" id="el1xnl3zj789u" class="animable"></rect><path d="M177.93,397.69h36.36l18.51,13.7,31.83,5.55V433.6H122.12l-10.73-4.81v-6.3l44.42-9.25,18.95-14.48A5.24,5.24,0,0,1,177.93,397.69Z" style="fill: rgb(146, 227, 169); stroke: rgb(38, 50, 56); stroke-linecap: round; stroke-linejoin: round; transform-origin: 188.01px 415.645px;" id="eltobhtjy9b8f" class="animable"></path><path d="M184.31,413.24H155.44l18.95-14.48a5.24,5.24,0,0,1,3.17-1.07h27.11Z" style="fill: rgb(255, 255, 255); stroke: rgb(38, 50, 56); stroke-linecap: round; stroke-linejoin: round; transform-origin: 180.055px 405.465px;" id="eleumff0a93s4" class="animable"></path><g id="elmigupdpqqhb"><circle cx="166.17" cy="435.08" r="10.73" style="fill: rgb(255, 255, 255); stroke: rgb(38, 50, 56); stroke-linecap: round; stroke-linejoin: round; transform-origin: 166.17px 435.08px; transform: rotate(-45deg);" class="animable"></circle></g><g id="el37qdqsrzr4q"><circle cx="169.5" cy="435.08" r="10.73" style="fill: rgb(38, 50, 56); stroke: rgb(38, 50, 56); stroke-linecap: round; stroke-linejoin: round; transform-origin: 169.5px 435.08px; transform: rotate(-22.35deg);" class="animable"></circle></g><path d="M175.05,435.08a5.55,5.55,0,1,1-5.55-5.55A5.54,5.54,0,0,1,175.05,435.08Z" style="fill: rgb(255, 255, 255); stroke: rgb(38, 50, 56); stroke-linecap: round; stroke-linejoin: round; transform-origin: 169.5px 435.08px;" id="el9l5t4e0h01w" class="animable"></path><path d="M141.74,424.35a10.26,10.26,0,0,0-1.67.14,10,10,0,0,0-1.66-.14,10.74,10.74,0,1,0,0,21.47,10,10,0,0,0,1.66-.15,10.27,10.27,0,0,0,1.67.15,10.74,10.74,0,0,0,0-21.47Z" style="fill: rgb(38, 50, 56); stroke: rgb(38, 50, 56); stroke-linecap: round; stroke-linejoin: round; transform-origin: 139.747px 435.085px;" id="elhnqzj3b34cl" class="animable"></path><path d="M223.55,424.35a10.17,10.17,0,0,0-1.67.14,10.17,10.17,0,0,0-1.67-.14,10.74,10.74,0,0,0,0,21.47,10.17,10.17,0,0,0,1.67-.15,10.17,10.17,0,0,0,1.67.15,10.74,10.74,0,0,0,0-21.47Z" style="fill: rgb(38, 50, 56); stroke: rgb(38, 50, 56); stroke-linecap: round; stroke-linejoin: round; transform-origin: 221.88px 435.085px;" id="elyiug28xdt6" class="animable"></path><g id="el3ld1ltut4ow"><circle cx="246.13" cy="435.08" r="10.73" style="fill: rgb(255, 255, 255); stroke: rgb(38, 50, 56); stroke-linecap: round; stroke-linejoin: round; transform-origin: 246.13px 435.08px; transform: rotate(-76.65deg);" class="animable"></circle></g><g id="eli58aqb1plt"><circle cx="249.46" cy="435.08" r="10.73" style="fill: rgb(38, 50, 56); stroke: rgb(38, 50, 56); stroke-linecap: round; stroke-linejoin: round; transform-origin: 249.46px 435.08px; transform: rotate(-22.35deg);" class="animable"></circle></g><path d="M255,435.08a5.56,5.56,0,1,1-5.55-5.55A5.55,5.55,0,0,1,255,435.08Z" style="fill: rgb(255, 255, 255); stroke: rgb(38, 50, 56); stroke-linecap: round; stroke-linejoin: round; transform-origin: 249.44px 435.09px;" id="elkuwa0lyb5tm" class="animable"></path><path d="M261.3,411.39l-16.38-12.13a8,8,0,0,0-4.77-1.57H204.67l-20.36,15.55-44.42,9.25v6.3l10.73,4.81h7.21a8.3,8.3,0,0,1-.17-1.67v-.37a8,8,0,0,1,8-7.95h8.15a8,8,0,0,1,8,7.95v.37c0,.58-.07,1.13-.18,5.74H237.6c-.11-4.61-.17-5.16-.17-5.74v-.37a8,8,0,0,1,7.95-7.95h8.15a8,8,0,0,1,8,7.95v.37a8.29,8.29,0,0,1-.18,1.67h11.84V421.24a6.76,6.76,0,0,0-3.89-6.12Z" style="fill: rgb(146, 227, 169); stroke: rgb(38, 50, 56); stroke-linecap: round; stroke-linejoin: round; transform-origin: 206.54px 417.68px;" id="elwc7xk89bta" class="animable"></path><polygon points="222.06 400.29 205.53 400.29 188.56 413.24 222.06 413.24 222.06 400.29" style="fill: rgb(255, 255, 255); stroke: rgb(38, 50, 56); stroke-linecap: round; stroke-linejoin: round; transform-origin: 205.31px 406.765px;" id="elpmjggjjmzah" class="animable"></polygon><path d="M224.84,400.29H238.3a8,8,0,0,1,4.86,1.64L258,413.24H224.84Z" style="fill: rgb(255, 255, 255); stroke: rgb(38, 50, 56); stroke-linecap: round; stroke-linejoin: round; transform-origin: 241.42px 406.765px;" id="elow4qh7kzy6i" class="animable"></path><rect x="111.39" y="422.49" width="28.5" height="6.29" style="fill: rgb(255, 255, 255); stroke: rgb(38, 50, 56); stroke-linecap: round; stroke-linejoin: round; transform-origin: 125.64px 425.635px;" id="el458e5pv8y9x" class="animable"></rect><rect x="266.11" y="429.9" width="9.25" height="5.18" style="fill: rgb(38, 50, 56); stroke: rgb(38, 50, 56); stroke-linecap: round; stroke-linejoin: round; transform-origin: 270.735px 432.49px;" id="el99iub0v6sn" class="animable"></rect><rect x="110.28" y="428.79" width="39.61" height="6.29" style="fill: rgb(38, 50, 56); stroke: rgb(38, 50, 56); stroke-linecap: round; stroke-linejoin: round; transform-origin: 130.085px 431.935px;" id="el2om5hjv0216" class="animable"></rect><rect x="189.49" y="411.39" width="8.88" height="5.55" rx="2.36" style="fill: rgb(38, 50, 56); stroke: rgb(38, 50, 56); stroke-linecap: round; stroke-linejoin: round; transform-origin: 193.93px 414.165px;" id="eln4ywkfxktee" class="animable"></rect><rect x="131.74" y="422.87" width="6.66" height="5.18" style="fill: rgb(255, 255, 255); stroke: rgb(38, 50, 56); stroke-linecap: round; stroke-linejoin: round; transform-origin: 135.07px 425.46px;" id="el98wjt34237" class="animable"></rect><rect x="112.5" y="422.87" width="6.66" height="5.18" style="fill: rgb(255, 255, 255); stroke: rgb(38, 50, 56); stroke-linecap: round; stroke-linejoin: round; transform-origin: 115.83px 425.46px;" id="elf6c6wrks9gn" class="animable"></rect><line x1="119.16" y1="424.72" x2="131.37" y2="424.72" style="fill: none; stroke: rgb(38, 50, 56); stroke-linecap: round; stroke-linejoin: round; transform-origin: 125.265px 424.72px;" id="elhakhouje9fk" class="animable"></line><line x1="119.16" y1="426.61" x2="131.37" y2="426.61" style="fill: none; stroke: rgb(38, 50, 56); stroke-linecap: round; stroke-linejoin: round; transform-origin: 125.265px 426.61px;" id="elxgho8i5olom" class="animable"></line><line x1="186.06" y1="431.37" x2="234.62" y2="431.37" style="fill: none; stroke: rgb(38, 50, 56); stroke-linecap: round; stroke-linejoin: round; stroke-width: 2px; transform-origin: 210.34px 431.37px;" id="el2ow04mreqwr" class="animable"></line><path d="M223.18,398.94v35.9h-38v-4.27a13,13,0,0,0-2.13-7.13l-1.17-1.78,6.59-5.9" style="fill: none; stroke: rgb(38, 50, 56); stroke-linecap: round; stroke-linejoin: round; transform-origin: 202.53px 416.89px;" id="elfausbbvonwn" class="animable"></path><path d="M258.38,414v8.15H244a7.19,7.19,0,0,0-5.08,2.11l-.82.82a7.19,7.19,0,0,0-2.1,5.08v4.3H225.26" style="fill: none; stroke: rgb(38, 50, 56); stroke-linecap: round; stroke-linejoin: round; transform-origin: 241.82px 424.23px;" id="eldk085nusxqi" class="animable"></path><rect x="217.49" y="417.15" width="4.51" height="2.58" style="fill: rgb(38, 50, 56); stroke: rgb(38, 50, 56); stroke-linecap: round; stroke-linejoin: round; transform-origin: 219.745px 418.44px;" id="elk4qdv5lm1d" class="animable"></rect><rect x="252.49" y="417.15" width="4.51" height="2.58" style="fill: rgb(38, 50, 56); stroke: rgb(38, 50, 56); stroke-linecap: round; stroke-linejoin: round; transform-origin: 254.745px 418.44px;" id="eld80fc6qe57" class="animable"></rect></g><g id="freepik--Plants--inject-7" class="animable" style="transform-origin: 234.12px 432.015px;"><path d="M408.78,445.62s-8.62-8.62-6.2-15.18,9,3.11,9,3.11.69-15.18,5.52-15.18,3.8,12.76,3.8,12.76,2.75-3.45,5.86-1.38.34,12.76.34,12.76,2.07-9.31,6.56-9.31.34,12.07.34,12.07" style="fill: rgb(146, 227, 169); transform-origin: 418.95px 431.995px;" id="elhbmfwfgpiqh" class="animable"></path><path d="M406.72,445.27s-5.52-7.58-3.8-9,4.14,2.76,4.14,2.76-1.72-10,3.79-10.35,3.45,12.07,3.45,12.07,2.76-7.59,5.52-5.52,1.73,8.28,1.73,8.28.34-5.17,3.79-5.17,5.52,4.13,5.52,4.13,3.1-5.17,5.52-3.44,0,6.55,0,6.55" style="fill: none; stroke: rgb(38, 50, 56); stroke-linecap: round; stroke-linejoin: round; transform-origin: 420.022px 437.126px;" id="elwnq7cs6o59" class="animable"></path><path d="M299.52,445.62s-6.11-6.11-4.4-10.75,6.35,2.2,6.35,2.2.49-10.76,3.91-10.76,2.69,9.05,2.69,9.05,2-2.45,4.16-1,.24,9,.24,9,1.47-6.6,4.64-6.6.25,8.55.25,8.55" style="fill: rgb(146, 227, 169); transform-origin: 306.702px 435.965px;" id="eljmzng3gyi9s" class="animable"></path><path d="M298.05,445.37s-3.91-5.37-2.68-6.35,2.93,2,2.93,2-1.22-7.09,2.69-7.33,2.44,8.55,2.44,8.55,1.95-5.38,3.91-3.91,1.22,5.86,1.22,5.86.25-3.66,2.69-3.66,3.91,2.93,3.91,2.93,2.2-3.67,3.91-2.44,0,4.64,0,4.64" style="fill: none; stroke: rgb(38, 50, 56); stroke-linecap: round; stroke-linejoin: round; transform-origin: 307.48px 439.673px;" id="elkd7xcx20xth" class="animable"></path><path d="M35.71,445.62s-6.4-6.4-4.61-11.27,6.66,2.3,6.66,2.3.52-11.26,4.1-11.26,2.82,9.47,2.82,9.47,2-2.56,4.35-1,.26,9.47.26,9.47,1.53-6.91,4.86-6.91.26,9,.26,9" style="fill: rgb(146, 227, 169); transform-origin: 43.2423px 435.505px;" id="eleua1gkrx3xw" class="animable"></path><path d="M34.18,445.36s-4.1-5.63-2.82-6.66,3.07,2.05,3.07,2.05-1.28-7.42,2.82-7.68,2.56,9,2.56,9,2-5.63,4.1-4.1,1.28,6.15,1.28,6.15.26-3.84,2.82-3.84,4.1,3.07,4.1,3.07,2.3-3.84,4.09-2.56,0,4.87,0,4.87" style="fill: none; stroke: rgb(38, 50, 56); stroke-linecap: round; stroke-linejoin: round; transform-origin: 44.054px 439.362px;" id="elk4r3a7xttao" class="animable"></path></g><g id="freepik--Floor--inject-7" class="animable" style="transform-origin: 234.5px 445.82px;"><line x1="29" y1="445.82" x2="440" y2="445.82" style="fill: none; stroke: rgb(38, 50, 56); stroke-linecap: round; stroke-linejoin: round; transform-origin: 234.5px 445.82px;" id="elku739uqgy9" class="animable"></line></g><defs>     <filter id="active" height="200%">         <feMorphology in="SourceAlpha" result="DILATED" operator="dilate" radius="2"></feMorphology>                <feFlood flood-color="#32DFEC" flood-opacity="1" result="PINK"></feFlood>        <feComposite in="PINK" in2="DILATED" operator="in" result="OUTLINE"></feComposite>        <feMerge>            <feMergeNode in="OUTLINE"></feMergeNode>            <feMergeNode in="SourceGraphic"></feMergeNode>        </feMerge>    </filter>    <filter id="hover" height="200%">        <feMorphology in="SourceAlpha" result="DILATED" operator="dilate" radius="2"></feMorphology>                <feFlood flood-color="#ff0000" flood-opacity="0.5" result="PINK"></feFlood>        <feComposite in="PINK" in2="DILATED" operator="in" result="OUTLINE"></feComposite>        <feMerge>            <feMergeNode in="OUTLINE"></feMergeNode>            <feMergeNode in="SourceGraphic"></feMergeNode>        </feMerge>            <feColorMatrix type="matrix" values="0   0   0   0   0                0   1   0   0   0                0   0   0   0   0                0   0   0   1   0 "></feColorMatrix>    </filter></defs></svg>